<?xml version="1.0" standalone="no"?>
<!DOCTYPE svg PUBLIC "-//W3C//DTD SVG 20010904//EN"
 "http://www.w3.org/TR/2001/REC-SVG-20010904/DTD/svg10.dtd">
<svg version="1.0" xmlns="http://www.w3.org/2000/svg"
 width="842.000000pt" height="842.000000pt" viewBox="0 0 842.000000 842.000000"
 preserveAspectRatio="xMidYMid meet">
<metadata>
Created by potrace 1.16, written by Peter Selinger 2001-2019
</metadata>
<g transform="translate(0.000000,842.000000) scale(0.100000,-0.100000)"
fill="#000000" stroke="none">
<path d="M0 4210 l0 -4210 4210 0 4210 0 0 4210 0 4210 -4210 0 -4210 0 0
-4210z m2627 2031 c13 -19 23 -38 23 -43 0 -9 -2151 -11 -2185 -2 -18 5 -65
60 -65 77 0 4 496 6 1102 5 l1102 -3 23 -34z m5383 32 c0 -17 -47 -72 -65 -77
-36 -10 -2505 -7 -2505 3 0 5 28 25 63 45 l62 35 1223 1 c672 0 1222 -3 1222
-7z m-5111 -457 c22 -35 41 -67 41 -70 0 -3 -494 -6 -1099 -6 l-1099 0 -41 63
c-22 35 -41 66 -41 70 0 4 494 7 1099 7 l1098 0 42 -64z m4855 52 c-4 -7 -25
-39 -46 -70 l-39 -58 -1505 0 c-940 0 -1503 4 -1499 9 5 9 118 74 195 113 33
16 123 17 1468 18 1144 0 1432 -3 1426 -12z m-4642 -395 c22 -26 108 -171 108
-183 0 -7 -359 -10 -1092 -10 l-1093 0 -62 99 c-35 54 -63 101 -63 105 0 3
492 6 1093 6 1029 0 1095 -1 1109 -17z m4396 -5 c-8 -13 -38 -60 -67 -105
l-53 -83 -888 0 c-582 0 -891 3 -895 10 -4 7 -296 10 -843 10 -966 0 -883 -14
-672 114 l125 75 1654 1 1653 0 -14 -22z m-4141 -391 c12 -12 45 -62 75 -112
30 -49 62 -102 72 -117 l18 -28 -1101 0 -1101 0 -28 46 c-15 26 -51 83 -81
128 -29 44 -56 87 -58 94 -4 10 214 12 1089 12 l1095 0 20 -23z m3825 -114
l-88 -138 -892 -3 c-491 -1 -892 0 -892 3 0 10 76 136 125 208 l46 67 894 0
894 0 -87 -137z m-3517 -368 c34 -55 80 -127 102 -160 l40 -60 -1091 -5 c-600
-3 -1095 -4 -1101 -2 -9 2 -215 322 -215 333 0 2 496 2 1101 -1 l1102 -5 62
-100z m3345 101 c0 -3 -37 -64 -81 -138 -45 -73 -89 -145 -98 -160 l-16 -28
-855 0 c-470 0 -872 -3 -892 -6 -25 -4 -38 -3 -38 4 0 15 166 294 189 318 16
18 49 19 904 16 488 -1 887 -4 887 -6z m-240 -394 c0 -3 -33 -57 -74 -121 -67
-107 -332 -532 -549 -881 -49 -80 -120 -192 -157 -250 -37 -58 -94 -148 -125
-200 -32 -52 -95 -153 -140 -225 -45 -71 -127 -202 -182 -290 l-99 -160 -55
-7 c-30 -3 -570 -6 -1201 -7 l-1146 -1 -29 38 c-27 34 -129 191 -308 472 -71
112 -133 207 -277 430 -45 69 -127 197 -183 285 -56 88 -172 268 -258 400 -85
132 -188 292 -228 355 -40 63 -79 125 -87 138 l-14 22 1101 0 1101 0 29 -47
c52 -86 223 -351 367 -569 78 -117 144 -220 147 -229 4 -8 12 -15 19 -15 17 1
219 312 467 721 38 64 76 121 84 127 10 9 244 13 893 14 483 2 885 3 892 4 6
0 12 -2 12 -4z"/>
</g>
</svg>
